<svg xmlns="http://www.w3.org/2000/svg" xmlns:v="https://svgstorm.com"
viewBox = "0 0 282 245"
width="282"
height="245">
<g fill="None" fill-opacity="0.0" stroke="#262426" stroke-opacity="1.00" stroke-width="0.3"><path d="
M 0.00 245.00 
L 282.00 245.00
L 282.00 0.00
L 0.00 0.00
L 0.00 245.00
M 180.00 81.00 
C 180.93 86.02 182.47 91.10 184.00 96.00
C 185.45 99.29 188.34 101.53 188.00 106.00
C 187.96 106.50 188.00 107.00 188.00 107.00
C 192.96 112.78 193.36 122.16 194.00 128.00
C 196.57 135.06 199.42 141.93 202.00 149.00
C 205.66 155.64 208.74 162.57 211.00 170.00
C 214.64 176.26 216.36 183.13 220.77 189.23 C 225.18 195.33 228.11 200.75 233.25 206.75 C 238.40 212.75 242.90 215.59 249.08 220.92 C 255.27 226.25 266.67 223.88 274.00 226.00
C 281.30 228.11 266.49 233.89 261.00 233.00 C 255.51 232.11 243.98 232.64 239.30 228.70 C 234.62 224.76 228.59 224.96 224.30 219.70 C 220.02 214.44 214.73 210.99 211.30 205.70 C 207.86 200.41 204.57 195.62 201.08 189.92 C 197.59 184.22 195.77 178.13 193.03 171.98 C 190.28 165.82 187.99 159.88 185.69 153.31 C 183.40 146.73 180.69 140.07 179.00 133.00
C 160.45 132.92 140.86 133.12 123.00 133.00
C 121.28 134.97 120.63 137.95 118.00 139.00
C 117.26 140.18 116.59 142.58 116.00 144.00
C 115.71 145.73 115.25 150.32 114.01 154.01 C 112.77 157.70 109.52 160.79 108.00 164.00
C 107.31 166.06 106.30 168.86 106.00 171.00
C 105.94 172.36 108.11 175.87 107.00 178.00
C 108.77 177.79 110.37 179.54 111.00 181.00
C 111.19 181.32 111.65 181.90 112.00 182.00
C 113.71 181.35 116.03 180.17 118.00 182.00
C 117.33 183.20 116.36 184.58 115.00 185.00
C 108.89 187.02 100.41 184.11 94.00 185.00 C 87.59 185.89 80.03 185.12 74.00 184.00
C 101.69 175.63 103.51 139.48 116.00 117.00
C 118.79 109.88 122.21 103.12 125.00 96.00
C 126.10 90.84 129.09 83.19 128.00 77.00
C 129.63 76.99 130.51 78.28 132.00 77.00
C 132.35 76.93 132.87 76.35 133.00 76.00
C 131.97 71.84 135.99 59.55 140.00 57.00
C 140.31 56.80 140.87 56.35 141.00 56.00
C 140.26 53.25 140.67 48.97 144.00 47.00
C 144.32 46.81 144.85 46.34 145.00 46.00
C 144.39 43.12 141.65 38.40 138.00 41.00
C 140.20 35.10 132.32 31.71 125.92 29.08 C 119.53 26.44 107.95 29.62 101.00 30.00
C 107.06 18.21 127.20 19.72 139.08 22.92 C 150.96 26.12 158.01 36.32 164.75 46.25 C 171.49 56.17 178.93 68.39 180.00 81.00
M 94.00 48.00 
C 97.45 47.69 101.27 47.84 104.00 49.00
C 104.50 49.00 105.50 49.03 106.00 49.00
C 111.72 48.60 115.00 51.86 121.00 50.00 C 127.00 48.14 128.76 56.33 128.00 60.00 C 127.24 63.67 129.16 73.59 125.00 74.00
C 121.49 74.34 122.65 65.16 119.69 63.31 C 116.74 61.45 113.67 56.61 109.32 56.68 C 104.97 56.75 97.84 54.86 94.00 55.00
C 92.04 55.26 89.76 56.01 88.00 57.00
C 83.66 59.98 80.39 66.32 77.00 70.00
C 76.76 70.26 76.16 70.66 76.00 71.00
C 77.21 74.51 77.30 83.48 77.00 88.00
C 76.97 88.50 77.00 89.00 77.00 89.00
C 82.49 94.25 90.91 101.38 95.00 108.00
C 95.20 108.32 95.70 108.78 96.00 109.00
C 107.31 106.92 111.12 125.47 102.00 132.00
C 84.76 125.67 66.58 107.78 64.00 90.00
C 63.67 88.95 63.43 88.07 63.00 87.00
C 61.62 83.55 62.23 80.33 63.00 77.00
C 64.07 72.39 65.72 68.90 68.00 65.00
C 68.77 63.68 69.29 62.33 70.00 61.00
C 70.33 60.37 70.64 59.57 71.00 59.00
C 74.10 54.02 77.55 52.37 83.00 51.00
C 85.19 50.45 87.79 49.28 90.00 49.00
C 92.33 47.99 91.70 47.98 94.00 48.00
M 54.00 203.00 
C 51.63 198.51 49.27 194.06 48.02 188.98 C 46.78 183.89 46.75 174.04 47.00 169.00 C 47.25 163.96 51.09 157.61 51.92 153.92 C 52.76 150.23 61.16 143.22 62.00 145.00
C 63.98 149.21 55.34 157.96 54.00 161.00
C 53.32 163.38 52.34 166.59 52.00 169.00
C 51.71 175.61 53.74 185.47 56.00 192.00
C 56.99 193.87 57.94 196.02 59.00 198.00
C 59.11 198.21 60.00 198.00 60.00 198.00
C 64.94 201.78 74.59 206.56 78.00 211.00
C 78.49 211.08 79.00 211.00 79.00 211.00
C 83.35 210.59 86.53 212.46 90.00 213.00
C 92.32 213.00 94.68 213.12 97.00 213.00
C 103.87 212.66 112.49 210.02 118.00 206.00
C 126.24 196.61 128.85 191.08 131.99 178.99 C 135.14 166.90 122.26 156.58 123.00 146.00
C 120.99 135.79 133.21 134.40 138.25 142.75 C 143.30 151.09 146.89 158.92 148.00 168.00 C 149.11 177.08 148.61 189.81 144.01 197.01 C 139.41 204.20 132.73 209.91 126.25 214.25 C 119.76 218.58 109.63 220.74 101.77 222.77 C 93.91 224.80 80.59 221.20 73.33 218.67 C 66.07 216.15 58.09 210.74 54.08 203.92 Z"/>
</g>
<g fill="None" fill-opacity="0.0" stroke="#352E1C" stroke-opacity="1.00" stroke-width="0.3"><path d="
M 145.00 46.00 
C 145.16 45.64 146.02 43.42 146.00 43.00
C 145.78 41.53 137.40 34.30 136.00 33.00
C 131.63 29.55 127.63 27.36 122.00 27.00
C 119.69 26.85 117.32 27.00 115.00 27.00
C 114.50 27.00 114.00 27.00 114.00 27.00
C 109.83 27.10 106.12 28.61 102.00 29.00
C 104.47 25.72 109.04 24.51 113.00 24.00
C 115.71 23.46 118.12 23.16 121.00 23.00
C 124.09 22.50 127.02 22.64 130.00 23.00
C 147.34 23.35 159.95 39.00 168.00 53.00
C 172.97 61.63 177.06 71.93 180.00 81.00
C 178.93 68.39 171.49 56.17 164.75 46.25 C 158.01 36.32 150.96 26.12 139.08 22.92 C 127.20 19.72 107.06 18.21 101.00 30.00
C 107.95 29.62 119.53 26.44 125.92 29.08 C 132.32 31.71 140.20 35.10 138.00 41.00
C 141.65 38.40 144.39 43.12 145.00 46.00 Z"/>
</g>
<g fill="None" fill-opacity="0.0" stroke="#868251" stroke-opacity="1.00" stroke-width="0.3"><path d="
M 121.00 23.00 
C 123.97 22.84 127.03 22.94 130.00 23.00
C 127.02 22.64 124.09 22.50 121.00 23.00 Z"/>
</g>
<g fill="None" fill-opacity="0.0" stroke="#DFD48A" stroke-opacity="1.00" stroke-width="0.3"><path d="
M 113.00 24.00 
C 112.87 24.55 113.50 26.73 114.00 27.00
C 114.00 27.00 114.50 27.00 115.00 27.00
C 117.51 25.14 119.69 26.59 122.00 27.00
C 127.63 27.36 131.63 29.55 136.00 33.00
C 138.09 34.65 145.90 40.22 146.00 43.00
C 146.02 43.42 145.16 45.64 145.00 46.00
C 144.85 46.34 144.32 46.81 144.00 47.00
C 142.82 49.84 142.10 53.09 141.00 56.00
C 140.87 56.35 140.31 56.80 140.00 57.00
C 137.44 63.15 135.36 69.73 133.00 76.00
C 132.87 76.35 132.35 76.93 132.00 77.00
C 129.43 83.15 127.45 89.76 125.00 96.00
C 122.21 103.12 118.79 109.88 116.00 117.00
C 114.91 123.09 118.72 133.06 118.00 139.00
C 118.94 136.29 120.40 133.81 121.00 131.00
C 136.00 131.00 151.00 131.00 166.00 131.00
C 165.13 129.33 166.19 127.31 168.00 127.00
C 167.76 125.33 165.15 126.83 165.00 125.00
C 159.53 125.00 148.96 125.88 144.00 125.00 C 139.04 124.12 126.41 127.82 124.00 124.00
C 122.00 120.82 128.66 114.38 128.78 110.78 C 128.89 107.18 132.76 101.15 134.00 98.00
C 134.67 95.01 135.96 92.56 137.00 90.00
C 138.17 87.13 138.88 83.96 140.00 81.00
C 142.15 75.31 145.00 69.41 147.00 64.00
C 148.19 60.79 149.38 57.40 150.00 54.00
C 156.13 57.72 158.05 67.17 160.00 74.00
C 161.01 75.62 162.26 77.97 163.00 80.00
C 163.84 80.37 165.13 79.70 166.00 80.00
C 163.10 75.63 169.32 67.57 168.75 63.75 C 168.19 59.94 164.87 58.66 168.00 53.00
C 159.95 39.00 147.34 23.35 130.00 23.00
C 127.03 22.94 123.97 22.84 121.00 23.00
C 118.12 23.16 115.71 23.46 113.00 24.00 Z"/>
</g>
<g fill="None" fill-opacity="0.0" stroke="#B2A77B" stroke-opacity="1.00" stroke-width="0.3"><path d="
M 114.00 27.00 
C 113.50 26.73 112.87 24.55 113.00 24.00
C 109.04 24.51 104.47 25.72 102.00 29.00
C 106.12 28.61 109.83 27.10 114.00 27.00 Z"/>
</g>
<g fill="None" fill-opacity="0.0" stroke="#8B835B" stroke-opacity="1.00" stroke-width="0.3"><path d="
M 115.00 27.00 
C 117.32 27.00 119.69 26.85 122.00 27.00
C 119.69 26.59 117.51 25.14 115.00 27.00 Z"/>
</g>
<g fill="None" fill-opacity="0.0" stroke="#6A6440" stroke-opacity="1.00" stroke-width="0.3"><path d="
M 146.00 43.00 
C 145.90 40.22 138.09 34.65 136.00 33.00
C 137.40 34.30 145.78 41.53 146.00 43.00 Z"/>
</g>
<g fill="None" fill-opacity="0.0" stroke="#302814" stroke-opacity="1.00" stroke-width="0.3"><path d="
M 90.00 49.00 
C 91.28 48.84 92.70 49.00 94.00 49.00
C 94.22 48.87 94.00 48.00 94.00 48.00
C 91.70 47.98 92.33 47.99 90.00 49.00 Z"/>
</g>
<g fill="None" fill-opacity="0.0" stroke="#38321B" stroke-opacity="1.00" stroke-width="0.3"><path d="
M 141.00 56.00 
C 142.10 53.09 142.82 49.84 144.00 47.00
C 140.67 48.97 140.26 53.25 141.00 56.00 Z"/>
</g>
<g fill="None" fill-opacity="0.0" stroke="#645535" stroke-opacity="1.00" stroke-width="0.3"><path d="
M 94.00 49.00 
C 97.33 49.00 100.67 49.00 104.00 49.00
C 101.27 47.84 97.45 47.69 94.00 48.00
C 94.00 48.00 94.22 48.87 94.00 49.00 Z"/>
</g>
<g fill="None" fill-opacity="0.0" stroke="#C4AA6F" stroke-opacity="1.00" stroke-width="0.3"><path d="
M 83.00 51.00 
C 82.86 51.05 83.00 52.00 83.00 52.00
C 85.96 52.80 86.46 56.36 85.00 59.00
C 85.96 58.27 86.98 57.57 88.00 57.00
C 89.76 56.01 92.04 55.26 94.00 55.00
C 98.46 54.41 105.60 54.09 110.00 55.00
C 108.19 53.32 108.29 53.76 110.00 52.00
C 108.23 52.21 106.63 50.46 106.00 49.00
C 105.50 49.03 104.50 49.00 104.00 49.00
C 100.67 49.00 97.33 49.00 94.00 49.00
C 92.70 49.00 91.28 48.84 90.00 49.00
C 87.79 49.28 85.19 50.45 83.00 51.00 Z"/>
</g>
<g fill="None" fill-opacity="0.0" stroke="#B48D59" stroke-opacity="1.00" stroke-width="0.3"><path d="
M 110.00 55.00 
C 118.59 56.78 123.30 66.13 125.00 74.00
C 129.16 73.59 127.24 63.67 128.00 60.00 C 128.76 56.33 127.00 48.14 121.00 50.00 C 115.00 51.86 111.72 48.60 106.00 49.00
C 106.63 50.46 108.23 52.21 110.00 52.00
C 108.29 53.76 108.19 53.32 110.00 55.00 Z"/>
</g>
<g fill="None" fill-opacity="0.0" stroke="#372E1B" stroke-opacity="1.00" stroke-width="0.3"><path d="
M 71.00 59.00 
C 72.31 57.59 74.43 56.04 76.00 55.00
C 78.19 53.54 80.63 52.89 83.00 52.00
C 83.00 52.00 82.86 51.05 83.00 51.00
C 77.55 52.37 74.10 54.02 71.00 59.00 Z"/>
</g>
<g fill="None" fill-opacity="0.0" stroke="#DED187" stroke-opacity="1.00" stroke-width="0.3"><path d="
M 76.00 55.00 
C 74.42 56.24 71.18 59.47 70.00 61.00
C 69.29 62.33 68.77 63.68 68.00 65.00
C 66.51 72.92 72.47 86.84 74.14 91.92 C 75.81 97.01 77.65 109.93 80.00 114.00
C 81.74 115.74 83.25 118.38 85.00 120.00
C 90.34 124.21 95.84 128.51 102.00 131.00
C 102.46 125.98 106.08 121.93 107.00 117.00
C 102.96 114.95 99.34 111.75 96.00 109.00
C 95.70 108.78 95.20 108.32 95.00 108.00
C 89.32 102.98 78.74 96.92 77.00 89.00
C 77.00 89.00 76.97 88.50 77.00 88.00
C 73.45 85.28 74.30 74.72 76.00 71.00
C 76.16 70.66 76.76 70.26 77.00 70.00
C 79.24 65.44 80.65 62.29 85.00 59.00
C 86.46 56.36 85.96 52.80 83.00 52.00
C 80.63 52.89 78.19 53.54 76.00 55.00 Z"/>
</g>
<g fill="None" fill-opacity="0.0" stroke="#D0B874" stroke-opacity="1.00" stroke-width="0.3"><path d="
M 163.00 80.00 
C 164.97 85.40 167.03 91.28 168.00 97.00
C 169.05 100.25 172.86 106.50 172.93 110.07 C 172.99 113.65 178.94 120.99 177.00 124.00
C 175.56 126.24 167.60 125.00 165.00 125.00
C 165.15 126.83 167.76 125.33 168.00 127.00
C 166.19 127.31 165.13 129.33 166.00 131.00
C 170.67 131.00 175.33 131.00 180.00 131.00
C 186.46 151.86 193.46 172.59 204.00 192.00
C 205.84 194.36 209.42 197.02 212.00 198.00
C 210.53 192.73 215.59 183.28 209.00 182.00
C 208.50 179.00 209.57 176.45 211.00 174.00
C 208.02 173.08 207.69 169.48 209.00 168.00
C 205.94 162.35 204.22 155.08 202.00 149.00
C 199.42 141.93 196.57 135.06 194.00 128.00
C 191.81 121.98 188.24 113.45 188.00 107.00
C 188.00 107.00 187.96 106.50 188.00 106.00
C 185.71 104.24 184.87 98.80 184.00 96.00
C 182.47 91.10 180.93 86.02 180.00 81.00
C 177.06 71.93 172.97 61.63 168.00 53.00
C 164.87 58.66 168.19 59.94 168.75 63.75 C 169.32 67.57 163.10 75.63 166.00 80.00
C 165.13 79.70 163.84 80.37 163.00 80.00 Z"/>
</g>
<g fill="None" fill-opacity="0.0" stroke="#3A321E" stroke-opacity="1.00" stroke-width="0.3"><path d="
M 147.00 64.00 
C 148.48 61.50 150.82 59.41 151.00 56.00
C 155.41 61.57 155.10 68.89 160.00 74.00
C 158.05 67.17 156.13 57.72 150.00 54.00
C 149.38 57.40 148.19 60.79 147.00 64.00 Z"/>
</g>
<g fill="None" fill-opacity="0.0" stroke="#595431" stroke-opacity="1.00" stroke-width="0.3"><path d="
M 71.00 59.00 
C 70.64 59.57 70.33 60.37 70.00 61.00
C 71.18 59.47 74.42 56.24 76.00 55.00
C 74.43 56.04 72.31 57.59 71.00 59.00 Z"/>
</g>
<g fill="None" fill-opacity="0.0" stroke="#3F301C" stroke-opacity="1.00" stroke-width="0.3"><path d="
M 125.00 74.00 
C 123.30 66.13 118.59 56.78 110.00 55.00
C 105.60 54.09 98.46 54.41 94.00 55.00
C 97.84 54.86 104.97 56.75 109.32 56.68 C 113.67 56.61 116.74 61.45 119.69 63.31 C 122.65 65.16 121.49 74.34 125.00 74.00 Z"/>
</g>
<g fill="None" fill-opacity="0.0" stroke="#262426" stroke-opacity="1.00" stroke-width="0.3"><path d="
M 147.00 64.00 
C 145.00 69.41 142.15 75.31 140.00 81.00
C 139.47 84.83 139.48 86.03 137.00 90.00
C 135.96 92.56 134.67 95.01 134.00 98.00
C 132.04 106.70 127.94 114.25 126.00 123.00
C 142.33 123.00 158.67 123.00 175.00 123.00
C 173.83 114.06 168.21 106.32 168.00 97.00
C 167.03 91.28 164.97 85.40 163.00 80.00
C 162.26 77.97 161.01 75.62 160.00 74.00
C 155.10 68.89 155.41 61.57 151.00 56.00
C 150.82 59.41 148.48 61.50 147.00 64.00 Z"/>
</g>
<g fill="None" fill-opacity="0.0" stroke="#39311C" stroke-opacity="1.00" stroke-width="0.3"><path d="
M 85.00 59.00 
C 80.65 62.29 79.24 65.44 77.00 70.00
C 80.39 66.32 83.66 59.98 88.00 57.00
C 86.98 57.57 85.96 58.27 85.00 59.00 Z"/>
</g>
<g fill="None" fill-opacity="0.0" stroke="#36321F" stroke-opacity="1.00" stroke-width="0.3"><path d="
M 133.00 76.00 
C 135.36 69.73 137.44 63.15 140.00 57.00
C 135.99 59.55 131.97 71.84 133.00 76.00 Z"/>
</g>
<g fill="None" fill-opacity="0.0" stroke="#C9AD6B" stroke-opacity="1.00" stroke-width="0.3"><path d="
M 63.00 77.00 
C 62.68 79.87 62.44 84.17 63.00 87.00
C 63.43 88.07 63.67 88.95 64.00 90.00
C 66.37 97.44 70.09 103.78 75.00 110.00
C 76.36 111.47 78.63 112.63 80.00 114.00
C 77.65 109.93 75.81 97.01 74.14 91.92 C 72.47 86.84 66.51 72.92 68.00 65.00
C 65.72 68.90 64.07 72.39 63.00 77.00 Z"/>
</g>
<g fill="None" fill-opacity="0.0" stroke="#322D17" stroke-opacity="1.00" stroke-width="0.3"><path d="
M 77.00 88.00 
C 77.30 83.48 77.21 74.51 76.00 71.00
C 74.30 74.72 73.45 85.28 77.00 88.00 Z"/>
</g>
<g fill="None" fill-opacity="0.0" stroke="#42321B" stroke-opacity="1.00" stroke-width="0.3"><path d="
M 63.00 87.00 
C 62.44 84.17 62.68 79.87 63.00 77.00
C 62.23 80.33 61.62 83.55 63.00 87.00 Z"/>
</g>
<g fill="None" fill-opacity="0.0" stroke="#34301D" stroke-opacity="1.00" stroke-width="0.3"><path d="
M 125.00 96.00 
C 127.45 89.76 129.43 83.15 132.00 77.00
C 130.51 78.28 129.63 76.99 128.00 77.00
C 129.09 83.19 126.10 90.84 125.00 96.00 Z"/>
</g>
<g fill="None" fill-opacity="0.0" stroke="#34301D" stroke-opacity="1.00" stroke-width="0.3"><path d="
M 137.00 90.00 
C 139.48 86.03 139.47 84.83 140.00 81.00
C 138.88 83.96 138.17 87.13 137.00 90.00 Z"/>
</g>
<g fill="None" fill-opacity="0.0" stroke="#3C361D" stroke-opacity="1.00" stroke-width="0.3"><path d="
M 95.00 108.00 
C 90.91 101.38 82.49 94.25 77.00 89.00
C 78.74 96.92 89.32 102.98 95.00 108.00 Z"/>
</g>
<g fill="None" fill-opacity="0.0" stroke="#392F1C" stroke-opacity="1.00" stroke-width="0.3"><path d="
M 96.00 109.00 
C 99.34 111.75 102.96 114.95 107.00 117.00
C 106.08 121.93 102.46 125.98 102.00 131.00
C 95.84 128.51 90.34 124.21 85.00 120.00
C 81.34 117.11 77.85 113.61 75.00 110.00
C 70.09 103.78 66.37 97.44 64.00 90.00
C 66.58 107.78 84.76 125.67 102.00 132.00
C 111.12 125.47 107.31 106.92 96.00 109.00 Z"/>
</g>
<g fill="None" fill-opacity="0.0" stroke="#453821" stroke-opacity="1.00" stroke-width="0.3"><path d="
M 188.00 106.00 
C 188.34 101.53 185.45 99.29 184.00 96.00
C 184.87 98.80 185.71 104.24 188.00 106.00 Z"/>
</g>
<g fill="None" fill-opacity="0.0" stroke="#322B1B" stroke-opacity="1.00" stroke-width="0.3"><path d="
M 134.00 98.00 
C 132.76 101.15 128.89 107.18 128.78 110.78 C 128.66 114.38 122.00 120.82 124.00 124.00
C 141.67 124.00 159.33 124.00 177.00 124.00
C 178.94 120.99 172.99 113.65 172.93 110.07 C 172.86 106.50 169.05 100.25 168.00 97.00
C 168.21 106.32 173.83 114.06 175.00 123.00
C 158.67 123.00 142.33 123.00 126.00 123.00
C 127.94 114.25 132.04 106.70 134.00 98.00 Z"/>
</g>
<g fill="None" fill-opacity="0.0" stroke="#3B311F" stroke-opacity="1.00" stroke-width="0.3"><path d="
M 194.00 128.00 
C 193.36 122.16 192.96 112.78 188.00 107.00
C 188.24 113.45 191.81 121.98 194.00 128.00 Z"/>
</g>
<g fill="None" fill-opacity="0.0" stroke="#8D805B" stroke-opacity="1.00" stroke-width="0.3"><path d="
M 85.00 120.00 
C 83.25 118.38 81.74 115.74 80.00 114.00
C 78.63 112.63 76.36 111.47 75.00 110.00
C 77.85 113.61 81.34 117.11 85.00 120.00 Z"/>
</g>
<g fill="None" fill-opacity="0.0" stroke="#C8AE6E" stroke-opacity="1.00" stroke-width="0.3"><path d="
M 115.00 185.00 
C 115.48 182.76 113.48 182.43 112.00 182.00
C 111.65 181.90 111.19 181.32 111.00 181.00
C 105.75 179.84 105.24 176.41 106.00 171.00
C 106.30 168.86 107.31 166.06 108.00 164.00
C 110.24 157.27 113.29 150.53 116.00 144.00
C 116.59 142.58 117.26 140.18 118.00 139.00
C 118.72 133.06 114.91 123.09 116.00 117.00
C 103.51 139.48 101.69 175.63 74.00 184.00
C 80.03 185.12 87.59 185.89 94.00 185.00 C 100.41 184.11 108.89 187.02 115.00 185.00 Z"/>
</g>
<g fill="None" fill-opacity="0.0" stroke="#645E37" stroke-opacity="1.00" stroke-width="0.3"><path d="
M 165.00 125.00 
C 167.60 125.00 175.56 126.24 177.00 124.00
C 159.33 124.00 141.67 124.00 124.00 124.00
C 126.41 127.82 139.04 124.12 144.00 125.00 C 148.96 125.88 159.53 125.00 165.00 125.00 Z"/>
</g>
<g fill="None" fill-opacity="0.0" stroke="#382E1D" stroke-opacity="1.00" stroke-width="0.3"><path d="
M 118.00 139.00 
C 120.63 137.95 121.28 134.97 123.00 133.00
C 140.86 133.12 160.45 132.92 179.00 133.00
C 180.69 140.07 183.40 146.73 185.69 153.31 C 187.99 159.88 190.28 165.82 193.03 171.98 C 195.77 178.13 197.59 184.22 201.08 189.92 C 204.57 195.62 207.86 200.41 211.30 205.70 C 214.73 210.99 220.02 214.44 224.30 219.70 C 228.59 224.96 234.62 224.76 239.30 228.70 C 243.98 232.64 255.51 232.11 261.00 233.00 C 266.49 233.89 281.30 228.11 274.00 226.00
C 278.11 228.45 265.22 230.92 264.00 231.00
C 260.53 231.62 257.40 231.55 254.00 231.00
C 242.73 230.39 233.83 224.56 225.00 218.00
C 221.63 215.49 218.55 212.23 216.00 209.00
C 211.70 203.56 207.43 197.95 204.00 192.00
C 193.46 172.59 186.46 151.86 180.00 131.00
C 175.33 131.00 170.67 131.00 166.00 131.00
C 151.00 131.00 136.00 131.00 121.00 131.00
C 120.40 133.81 118.94 136.29 118.00 139.00 Z"/>
</g>
<g fill="None" fill-opacity="0.0" stroke="#382D1D" stroke-opacity="1.00" stroke-width="0.3"><path d="
M 123.00 146.00 
C 123.88 133.41 136.61 138.31 139.75 147.25 C 142.90 156.18 146.72 164.06 147.00 174.00 C 147.28 183.94 144.72 192.99 139.00 201.00
C 137.06 203.72 134.55 205.99 132.00 208.00
C 125.42 213.19 118.04 217.04 110.00 219.00
C 103.57 220.57 95.89 221.65 89.00 221.00
C 80.99 220.25 72.82 217.22 66.00 213.00
C 62.09 210.58 56.85 206.72 54.00 203.00
C 58.09 210.74 66.07 216.15 73.33 218.67 C 80.59 221.20 93.91 224.80 101.77 222.77 C 109.63 220.74 119.76 218.58 126.25 214.25 C 132.73 209.91 139.41 204.20 144.01 197.01 C 148.61 189.81 149.11 177.08 148.00 168.00 C 146.89 158.92 143.30 151.09 138.25 142.75 C 133.21 134.40 120.99 135.79 123.00 146.00 Z"/>
</g>
<g fill="None" fill-opacity="0.0" stroke="#BF9A5F" stroke-opacity="1.00" stroke-width="0.3"><path d="
M 123.00 146.00 
C 122.26 156.58 135.14 166.90 131.99 178.99 C 128.85 191.08 126.24 196.61 118.00 206.00
C 117.90 206.11 113.88 209.04 117.00 210.00
C 115.19 211.41 112.16 210.83 111.00 213.00
C 113.52 213.82 110.25 215.10 113.00 217.00
C 111.72 216.73 110.28 217.77 110.00 219.00
C 118.04 217.04 125.42 213.19 132.00 208.00
C 134.11 206.05 137.22 203.13 139.00 201.00
C 144.72 192.99 147.28 183.94 147.00 174.00 C 146.72 164.06 142.90 156.18 139.75 147.25 C 136.61 138.31 123.88 133.41 123.00 146.00 Z"/>
</g>
<g fill="None" fill-opacity="0.0" stroke="#B99A64" stroke-opacity="1.00" stroke-width="0.3"><path d="
M 54.00 203.00 
C 56.85 206.72 62.09 210.58 66.00 213.00
C 63.60 210.18 63.80 207.19 68.00 207.00
C 67.33 206.48 66.72 205.55 66.00 205.00
C 63.37 202.99 60.90 200.65 59.00 198.00
C 57.94 196.02 56.99 193.87 56.00 192.00
C 52.41 185.20 50.83 177.39 52.00 169.00
C 52.34 166.59 53.32 163.38 54.00 161.00
C 55.61 155.40 59.14 149.78 62.00 145.00
C 61.16 143.22 52.76 150.23 51.92 153.92 C 51.09 157.61 47.25 163.96 47.00 169.00 C 46.75 174.04 46.78 183.89 48.02 188.98 C 49.27 194.06 51.63 198.51 54.00 203.00 Z"/>
</g>
<g fill="None" fill-opacity="0.0" stroke="#382F1D" stroke-opacity="1.00" stroke-width="0.3"><path d="
M 108.00 164.00 
C 109.52 160.79 112.77 157.70 114.01 154.01 C 115.25 150.32 115.71 145.73 116.00 144.00
C 113.29 150.53 110.24 157.27 108.00 164.00 Z"/>
</g>
<g fill="None" fill-opacity="0.0" stroke="#433320" stroke-opacity="1.00" stroke-width="0.3"><path d="
M 54.00 161.00 
C 55.34 157.96 63.98 149.21 62.00 145.00
C 59.14 149.78 55.61 155.40 54.00 161.00 Z"/>
</g>
<g fill="None" fill-opacity="0.0" stroke="#413421" stroke-opacity="1.00" stroke-width="0.3"><path d="
M 209.00 168.00 
C 209.33 168.61 210.67 169.42 211.00 170.00
C 208.74 162.57 205.66 155.64 202.00 149.00
C 204.22 155.08 205.94 162.35 209.00 168.00 Z"/>
</g>
<g fill="None" fill-opacity="0.0" stroke="#C2A266" stroke-opacity="1.00" stroke-width="0.3"><path d="
M 204.00 192.00 
C 207.43 197.95 211.70 203.56 216.00 209.00
C 218.61 211.83 222.16 215.53 225.00 218.00
C 233.83 224.56 242.73 230.39 254.00 231.00
C 257.25 231.18 260.75 231.22 264.00 231.00
C 265.22 230.92 278.11 228.45 274.00 226.00
C 266.67 223.88 255.27 226.25 249.08 220.92 C 242.90 215.59 238.40 212.75 233.25 206.75 C 228.11 200.75 225.18 195.33 220.77 189.23 C 216.36 183.13 214.64 176.26 211.00 170.00
C 210.67 169.42 209.33 168.61 209.00 168.00
C 207.69 169.48 208.02 173.08 211.00 174.00
C 209.57 176.45 208.50 179.00 209.00 182.00
C 215.59 183.28 210.53 192.73 212.00 198.00
C 209.42 197.02 205.84 194.36 204.00 192.00 Z"/>
</g>
<g fill="None" fill-opacity="0.0" stroke="#352A1A" stroke-opacity="1.00" stroke-width="0.3"><path d="
M 56.00 192.00 
C 53.74 185.47 51.71 175.61 52.00 169.00
C 50.83 177.39 52.41 185.20 56.00 192.00 Z"/>
</g>
<g fill="None" fill-opacity="0.0" stroke="#382A1A" stroke-opacity="1.00" stroke-width="0.3"><path d="
M 111.00 181.00 
C 110.37 179.54 108.77 177.79 107.00 178.00
C 108.11 175.87 105.94 172.36 106.00 171.00
C 105.24 176.41 105.75 179.84 111.00 181.00 Z"/>
</g>
<g fill="None" fill-opacity="0.0" stroke="#332E1E" stroke-opacity="1.00" stroke-width="0.3"><path d="
M 112.00 182.00 
C 113.48 182.43 115.48 182.76 115.00 185.00
C 116.36 184.58 117.33 183.20 118.00 182.00
C 116.03 180.17 113.71 181.35 112.00 182.00 Z"/>
</g>
<g fill="None" fill-opacity="0.0" stroke="#645738" stroke-opacity="1.00" stroke-width="0.3"><path d="
M 66.00 205.00 
C 63.96 202.97 61.62 200.32 60.00 198.00
C 60.00 198.00 59.11 198.21 59.00 198.00
C 60.90 200.65 63.37 202.99 66.00 205.00 Z"/>
</g>
<g fill="None" fill-opacity="0.0" stroke="#362D1D" stroke-opacity="1.00" stroke-width="0.3"><path d="
M 66.00 205.00 
C 66.72 205.55 67.33 206.48 68.00 207.00
C 70.36 208.85 74.94 210.50 78.00 211.00
C 74.59 206.56 64.94 201.78 60.00 198.00
C 61.62 200.32 63.96 202.97 66.00 205.00 Z"/>
</g>
<g fill="None" fill-opacity="0.0" stroke="#7F6949" stroke-opacity="1.00" stroke-width="0.3"><path d="
M 132.00 208.00 
C 134.55 205.99 137.06 203.72 139.00 201.00
C 137.22 203.13 134.11 206.05 132.00 208.00 Z"/>
</g>
<g fill="None" fill-opacity="0.0" stroke="#CAB374" stroke-opacity="1.00" stroke-width="0.3"><path d="
M 97.00 213.00 
C 96.20 213.20 95.31 213.89 94.00 214.00
C 94.40 213.64 93.55 219.70 94.00 220.00
C 92.43 220.39 89.78 219.06 89.00 221.00
C 95.89 221.65 103.57 220.57 110.00 219.00
C 110.28 217.77 111.72 216.73 113.00 217.00
C 110.25 215.10 113.52 213.82 111.00 213.00
C 112.16 210.83 115.19 211.41 117.00 210.00
C 113.88 209.04 117.90 206.11 118.00 206.00
C 112.49 210.02 103.87 212.66 97.00 213.00 Z"/>
</g>
<g fill="None" fill-opacity="0.0" stroke="#DBCF88" stroke-opacity="1.00" stroke-width="0.3"><path d="
M 66.00 213.00 
C 72.82 217.22 80.99 220.25 89.00 221.00
C 89.78 219.06 92.43 220.39 94.00 220.00
C 93.55 219.70 94.40 213.64 94.00 214.00
C 91.65 214.20 89.62 213.25 88.00 213.00
C 84.71 213.23 81.36 212.92 79.00 211.00
C 79.00 211.00 78.49 211.08 78.00 211.00
C 74.94 210.50 70.36 208.85 68.00 207.00
C 63.80 207.19 63.60 210.18 66.00 213.00 Z"/>
</g>
<g fill="None" fill-opacity="0.0" stroke="#7D6C49" stroke-opacity="1.00" stroke-width="0.3"><path d="
M 225.00 218.00 
C 222.16 215.53 218.61 211.83 216.00 209.00
C 218.55 212.23 221.63 215.49 225.00 218.00 Z"/>
</g>
<g fill="None" fill-opacity="0.0" stroke="#312A15" stroke-opacity="1.00" stroke-width="0.3"><path d="
M 88.00 213.00 
C 88.50 212.97 89.50 213.00 90.00 213.00
C 86.53 212.46 83.35 210.59 79.00 211.00
C 81.36 212.92 84.71 213.23 88.00 213.00 Z"/>
</g>
<g fill="None" fill-opacity="0.0" stroke="#6F6149" stroke-opacity="1.00" stroke-width="0.3"><path d="
M 94.00 214.00 
C 95.31 213.89 96.20 213.20 97.00 213.00
C 94.68 213.12 92.32 213.00 90.00 213.00
C 89.50 213.00 88.50 212.97 88.00 213.00
C 89.62 213.25 91.65 214.20 94.00 214.00 Z"/>
</g>
<g fill="None" fill-opacity="0.0" stroke="#7A613B" stroke-opacity="1.00" stroke-width="0.3"><path d="
M 264.00 231.00 
C 260.75 231.22 257.25 231.18 254.00 231.00
C 257.40 231.55 260.53 231.62 264.00 231.00 Z"/>
</g>
<g fill="#262426" fill-opacity="1.00" stroke="None">
<path d="
M 0.00 245.00 
L 282.00 245.00
L 282.00 0.00
L 0.00 0.00
L 0.00 245.00
M 180.00 81.00 
C 180.93 86.02 182.47 91.10 184.00 96.00
C 185.45 99.29 188.34 101.53 188.00 106.00
C 187.96 106.50 188.00 107.00 188.00 107.00
C 192.96 112.78 193.36 122.16 194.00 128.00
C 196.57 135.06 199.42 141.93 202.00 149.00
C 205.66 155.64 208.74 162.57 211.00 170.00
C 214.64 176.26 216.36 183.13 220.77 189.23 C 225.18 195.33 228.11 200.75 233.25 206.75 C 238.40 212.75 242.90 215.59 249.08 220.92 C 255.27 226.25 266.67 223.88 274.00 226.00
C 281.30 228.11 266.49 233.89 261.00 233.00 C 255.51 232.11 243.98 232.64 239.30 228.70 C 234.62 224.76 228.59 224.96 224.30 219.70 C 220.02 214.44 214.73 210.99 211.30 205.70 C 207.86 200.41 204.57 195.62 201.08 189.92 C 197.59 184.22 195.77 178.13 193.03 171.98 C 190.28 165.82 187.99 159.88 185.69 153.31 C 183.40 146.73 180.69 140.07 179.00 133.00
C 160.45 132.92 140.86 133.12 123.00 133.00
C 121.28 134.97 120.63 137.95 118.00 139.00
C 117.26 140.18 116.59 142.58 116.00 144.00
C 115.71 145.73 115.25 150.32 114.01 154.01 C 112.77 157.70 109.52 160.79 108.00 164.00
C 107.31 166.06 106.30 168.86 106.00 171.00
C 105.94 172.36 108.11 175.87 107.00 178.00
C 108.77 177.79 110.37 179.54 111.00 181.00
C 111.19 181.32 111.65 181.90 112.00 182.00
C 113.71 181.35 116.03 180.17 118.00 182.00
C 117.33 183.20 116.36 184.58 115.00 185.00
C 108.89 187.02 100.41 184.11 94.00 185.00 C 87.59 185.89 80.03 185.12 74.00 184.00
C 101.69 175.63 103.51 139.48 116.00 117.00
C 118.79 109.88 122.21 103.12 125.00 96.00
C 126.10 90.84 129.09 83.19 128.00 77.00
C 129.63 76.99 130.51 78.28 132.00 77.00
C 132.35 76.93 132.87 76.35 133.00 76.00
C 131.97 71.84 135.99 59.55 140.00 57.00
C 140.31 56.80 140.87 56.35 141.00 56.00
C 140.26 53.25 140.67 48.97 144.00 47.00
C 144.32 46.81 144.85 46.34 145.00 46.00
C 144.39 43.12 141.65 38.40 138.00 41.00
C 140.20 35.10 132.32 31.71 125.92 29.08 C 119.53 26.44 107.95 29.62 101.00 30.00
C 107.06 18.21 127.20 19.72 139.08 22.92 C 150.96 26.12 158.01 36.32 164.75 46.25 C 171.49 56.17 178.93 68.39 180.00 81.00
M 94.00 48.00 
C 97.45 47.69 101.27 47.84 104.00 49.00
C 104.50 49.00 105.50 49.03 106.00 49.00
C 111.72 48.60 115.00 51.86 121.00 50.00 C 127.00 48.14 128.76 56.33 128.00 60.00 C 127.24 63.67 129.16 73.59 125.00 74.00
C 121.49 74.34 122.65 65.16 119.69 63.31 C 116.74 61.45 113.67 56.61 109.32 56.68 C 104.97 56.75 97.84 54.86 94.00 55.00
C 92.04 55.26 89.76 56.01 88.00 57.00
C 83.66 59.98 80.39 66.32 77.00 70.00
C 76.76 70.26 76.16 70.66 76.00 71.00
C 77.21 74.51 77.30 83.48 77.00 88.00
C 76.97 88.50 77.00 89.00 77.00 89.00
C 82.49 94.25 90.91 101.38 95.00 108.00
C 95.20 108.32 95.70 108.78 96.00 109.00
C 107.31 106.92 111.12 125.47 102.00 132.00
C 84.76 125.67 66.58 107.78 64.00 90.00
C 63.67 88.95 63.43 88.07 63.00 87.00
C 61.62 83.55 62.23 80.33 63.00 77.00
C 64.07 72.39 65.72 68.90 68.00 65.00
C 68.77 63.68 69.29 62.33 70.00 61.00
C 70.33 60.37 70.64 59.57 71.00 59.00
C 74.10 54.02 77.55 52.37 83.00 51.00
C 85.19 50.45 87.79 49.28 90.00 49.00
C 92.33 47.99 91.70 47.98 94.00 48.00
M 54.00 203.00 
C 51.63 198.51 49.27 194.06 48.02 188.98 C 46.78 183.89 46.75 174.04 47.00 169.00 C 47.25 163.96 51.09 157.61 51.92 153.92 C 52.76 150.23 61.16 143.22 62.00 145.00
C 63.98 149.21 55.34 157.96 54.00 161.00
C 53.32 163.38 52.34 166.59 52.00 169.00
C 51.71 175.61 53.74 185.47 56.00 192.00
C 56.99 193.87 57.94 196.02 59.00 198.00
C 59.11 198.21 60.00 198.00 60.00 198.00
C 64.94 201.78 74.59 206.56 78.00 211.00
C 78.49 211.08 79.00 211.00 79.00 211.00
C 83.35 210.59 86.53 212.46 90.00 213.00
C 92.32 213.00 94.68 213.12 97.00 213.00
C 103.87 212.66 112.49 210.02 118.00 206.00
C 126.24 196.61 128.85 191.08 131.99 178.99 C 135.14 166.90 122.26 156.58 123.00 146.00
C 120.99 135.79 133.21 134.40 138.25 142.75 C 143.30 151.09 146.89 158.92 148.00 168.00 C 149.11 177.08 148.61 189.81 144.01 197.01 C 139.41 204.20 132.73 209.91 126.25 214.25 C 119.76 218.58 109.63 220.74 101.77 222.77 C 93.91 224.80 80.59 221.20 73.33 218.67 C 66.07 216.15 58.09 210.74 54.08 203.92 Z"/>
</g>
<g fill="#352E1C" fill-opacity="1.00" stroke="None">
<path d="
M 145.00 46.00 
C 145.16 45.64 146.02 43.42 146.00 43.00
C 145.78 41.53 137.40 34.30 136.00 33.00
C 131.63 29.55 127.63 27.36 122.00 27.00
C 119.69 26.85 117.32 27.00 115.00 27.00
C 114.50 27.00 114.00 27.00 114.00 27.00
C 109.83 27.10 106.12 28.61 102.00 29.00
C 104.47 25.72 109.04 24.51 113.00 24.00
C 115.71 23.46 118.12 23.16 121.00 23.00
C 124.09 22.50 127.02 22.64 130.00 23.00
C 147.34 23.35 159.95 39.00 168.00 53.00
C 172.97 61.63 177.06 71.93 180.00 81.00
C 178.93 68.39 171.49 56.17 164.75 46.25 C 158.01 36.32 150.96 26.12 139.08 22.92 C 127.20 19.72 107.06 18.21 101.00 30.00
C 107.95 29.62 119.53 26.44 125.92 29.08 C 132.32 31.71 140.20 35.10 138.00 41.00
C 141.65 38.40 144.39 43.12 145.00 46.00 Z"/>
</g>
<g fill="#868251" fill-opacity="1.00" stroke="None">
<path d="
M 121.00 23.00 
C 123.97 22.84 127.03 22.94 130.00 23.00
C 127.02 22.64 124.09 22.50 121.00 23.00 Z"/>
</g>
<g fill="#DFD48A" fill-opacity="1.00" stroke="None">
<path d="
M 113.00 24.00 
C 112.87 24.55 113.50 26.73 114.00 27.00
C 114.00 27.00 114.50 27.00 115.00 27.00
C 117.51 25.14 119.69 26.59 122.00 27.00
C 127.63 27.36 131.63 29.55 136.00 33.00
C 138.09 34.65 145.90 40.22 146.00 43.00
C 146.02 43.42 145.16 45.64 145.00 46.00
C 144.85 46.34 144.32 46.81 144.00 47.00
C 142.82 49.84 142.10 53.09 141.00 56.00
C 140.87 56.35 140.31 56.80 140.00 57.00
C 137.44 63.15 135.36 69.73 133.00 76.00
C 132.87 76.35 132.35 76.93 132.00 77.00
C 129.43 83.15 127.45 89.76 125.00 96.00
C 122.21 103.12 118.79 109.88 116.00 117.00
C 114.91 123.09 118.72 133.06 118.00 139.00
C 118.94 136.29 120.40 133.81 121.00 131.00
C 136.00 131.00 151.00 131.00 166.00 131.00
C 165.13 129.33 166.19 127.31 168.00 127.00
C 167.76 125.33 165.15 126.83 165.00 125.00
C 159.53 125.00 148.96 125.88 144.00 125.00 C 139.04 124.12 126.41 127.82 124.00 124.00
C 122.00 120.82 128.66 114.38 128.78 110.78 C 128.89 107.18 132.76 101.15 134.00 98.00
C 134.67 95.01 135.96 92.56 137.00 90.00
C 138.17 87.13 138.88 83.96 140.00 81.00
C 142.15 75.31 145.00 69.41 147.00 64.00
C 148.19 60.79 149.38 57.40 150.00 54.00
C 156.13 57.72 158.05 67.17 160.00 74.00
C 161.01 75.62 162.26 77.97 163.00 80.00
C 163.84 80.37 165.13 79.70 166.00 80.00
C 163.10 75.63 169.32 67.57 168.75 63.75 C 168.19 59.94 164.87 58.66 168.00 53.00
C 159.95 39.00 147.34 23.35 130.00 23.00
C 127.03 22.94 123.97 22.84 121.00 23.00
C 118.12 23.16 115.71 23.46 113.00 24.00 Z"/>
</g>
<g fill="#B2A77B" fill-opacity="1.00" stroke="None">
<path d="
M 114.00 27.00 
C 113.50 26.73 112.87 24.55 113.00 24.00
C 109.04 24.51 104.47 25.72 102.00 29.00
C 106.12 28.61 109.83 27.10 114.00 27.00 Z"/>
</g>
<g fill="#8B835B" fill-opacity="1.00" stroke="None">
<path d="
M 115.00 27.00 
C 117.32 27.00 119.69 26.85 122.00 27.00
C 119.69 26.59 117.51 25.14 115.00 27.00 Z"/>
</g>
<g fill="#6A6440" fill-opacity="1.00" stroke="None">
<path d="
M 146.00 43.00 
C 145.90 40.22 138.09 34.65 136.00 33.00
C 137.40 34.30 145.78 41.53 146.00 43.00 Z"/>
</g>
<g fill="#302814" fill-opacity="1.00" stroke="None">
<path d="
M 90.00 49.00 
C 91.28 48.84 92.70 49.00 94.00 49.00
C 94.22 48.87 94.00 48.00 94.00 48.00
C 91.70 47.98 92.33 47.99 90.00 49.00 Z"/>
</g>
<g fill="#38321B" fill-opacity="1.00" stroke="None">
<path d="
M 141.00 56.00 
C 142.10 53.09 142.82 49.84 144.00 47.00
C 140.67 48.97 140.26 53.25 141.00 56.00 Z"/>
</g>
<g fill="#645535" fill-opacity="1.00" stroke="None">
<path d="
M 94.00 49.00 
C 97.33 49.00 100.67 49.00 104.00 49.00
C 101.27 47.84 97.45 47.69 94.00 48.00
C 94.00 48.00 94.22 48.87 94.00 49.00 Z"/>
</g>
<g fill="#C4AA6F" fill-opacity="1.00" stroke="None">
<path d="
M 83.00 51.00 
C 82.86 51.05 83.00 52.00 83.00 52.00
C 85.96 52.80 86.46 56.36 85.00 59.00
C 85.96 58.27 86.98 57.57 88.00 57.00
C 89.76 56.01 92.04 55.26 94.00 55.00
C 98.46 54.41 105.60 54.09 110.00 55.00
C 108.19 53.32 108.29 53.76 110.00 52.00
C 108.23 52.21 106.63 50.46 106.00 49.00
C 105.50 49.03 104.50 49.00 104.00 49.00
C 100.67 49.00 97.33 49.00 94.00 49.00
C 92.70 49.00 91.28 48.84 90.00 49.00
C 87.79 49.28 85.19 50.45 83.00 51.00 Z"/>
</g>
<g fill="#B48D59" fill-opacity="1.00" stroke="None">
<path d="
M 110.00 55.00 
C 118.59 56.78 123.30 66.13 125.00 74.00
C 129.16 73.59 127.24 63.67 128.00 60.00 C 128.76 56.33 127.00 48.14 121.00 50.00 C 115.00 51.86 111.72 48.60 106.00 49.00
C 106.63 50.46 108.23 52.21 110.00 52.00
C 108.29 53.76 108.19 53.32 110.00 55.00 Z"/>
</g>
<g fill="#372E1B" fill-opacity="1.00" stroke="None">
<path d="
M 71.00 59.00 
C 72.31 57.59 74.43 56.04 76.00 55.00
C 78.19 53.54 80.63 52.89 83.00 52.00
C 83.00 52.00 82.86 51.05 83.00 51.00
C 77.55 52.37 74.10 54.02 71.00 59.00 Z"/>
</g>
<g fill="#DED187" fill-opacity="1.00" stroke="None">
<path d="
M 76.00 55.00 
C 74.42 56.24 71.18 59.47 70.00 61.00
C 69.29 62.33 68.77 63.68 68.00 65.00
C 66.51 72.92 72.47 86.84 74.14 91.92 C 75.81 97.01 77.65 109.93 80.00 114.00
C 81.74 115.74 83.25 118.38 85.00 120.00
C 90.34 124.21 95.84 128.51 102.00 131.00
C 102.46 125.98 106.08 121.93 107.00 117.00
C 102.96 114.95 99.34 111.75 96.00 109.00
C 95.70 108.78 95.20 108.32 95.00 108.00
C 89.32 102.98 78.74 96.92 77.00 89.00
C 77.00 89.00 76.97 88.50 77.00 88.00
C 73.45 85.28 74.30 74.72 76.00 71.00
C 76.16 70.66 76.76 70.26 77.00 70.00
C 79.24 65.44 80.65 62.29 85.00 59.00
C 86.46 56.36 85.96 52.80 83.00 52.00
C 80.63 52.89 78.19 53.54 76.00 55.00 Z"/>
</g>
<g fill="#D0B874" fill-opacity="1.00" stroke="None">
<path d="
M 163.00 80.00 
C 164.97 85.40 167.03 91.28 168.00 97.00
C 169.05 100.25 172.86 106.50 172.93 110.07 C 172.99 113.65 178.94 120.99 177.00 124.00
C 175.56 126.24 167.60 125.00 165.00 125.00
C 165.15 126.83 167.76 125.33 168.00 127.00
C 166.19 127.31 165.13 129.33 166.00 131.00
C 170.67 131.00 175.33 131.00 180.00 131.00
C 186.46 151.86 193.46 172.59 204.00 192.00
C 205.84 194.36 209.42 197.02 212.00 198.00
C 210.53 192.73 215.59 183.28 209.00 182.00
C 208.50 179.00 209.57 176.45 211.00 174.00
C 208.02 173.08 207.69 169.48 209.00 168.00
C 205.94 162.35 204.22 155.08 202.00 149.00
C 199.42 141.93 196.57 135.06 194.00 128.00
C 191.81 121.98 188.24 113.45 188.00 107.00
C 188.00 107.00 187.96 106.50 188.00 106.00
C 185.71 104.24 184.87 98.80 184.00 96.00
C 182.47 91.10 180.93 86.02 180.00 81.00
C 177.06 71.93 172.97 61.63 168.00 53.00
C 164.87 58.66 168.19 59.94 168.75 63.75 C 169.32 67.57 163.10 75.63 166.00 80.00
C 165.13 79.70 163.84 80.37 163.00 80.00 Z"/>
</g>
<g fill="#3A321E" fill-opacity="1.00" stroke="None">
<path d="
M 147.00 64.00 
C 148.48 61.50 150.82 59.41 151.00 56.00
C 155.41 61.57 155.10 68.89 160.00 74.00
C 158.05 67.17 156.13 57.72 150.00 54.00
C 149.38 57.40 148.19 60.79 147.00 64.00 Z"/>
</g>
<g fill="#595431" fill-opacity="1.00" stroke="None">
<path d="
M 71.00 59.00 
C 70.64 59.57 70.33 60.37 70.00 61.00
C 71.18 59.47 74.42 56.24 76.00 55.00
C 74.43 56.04 72.31 57.59 71.00 59.00 Z"/>
</g>
<g fill="#3F301C" fill-opacity="1.00" stroke="None">
<path d="
M 125.00 74.00 
C 123.30 66.13 118.59 56.78 110.00 55.00
C 105.60 54.09 98.46 54.41 94.00 55.00
C 97.84 54.86 104.97 56.75 109.32 56.68 C 113.67 56.61 116.74 61.45 119.69 63.31 C 122.65 65.16 121.49 74.34 125.00 74.00 Z"/>
</g>
<g fill="#262426" fill-opacity="1.00" stroke="None">
<path d="
M 147.00 64.00 
C 145.00 69.41 142.15 75.31 140.00 81.00
C 139.47 84.83 139.48 86.03 137.00 90.00
C 135.96 92.56 134.67 95.01 134.00 98.00
C 132.04 106.70 127.94 114.25 126.00 123.00
C 142.33 123.00 158.67 123.00 175.00 123.00
C 173.83 114.06 168.21 106.32 168.00 97.00
C 167.03 91.28 164.97 85.40 163.00 80.00
C 162.26 77.97 161.01 75.62 160.00 74.00
C 155.10 68.89 155.41 61.57 151.00 56.00
C 150.82 59.41 148.48 61.50 147.00 64.00 Z"/>
</g>
<g fill="#39311C" fill-opacity="1.00" stroke="None">
<path d="
M 85.00 59.00 
C 80.65 62.29 79.24 65.44 77.00 70.00
C 80.39 66.32 83.66 59.98 88.00 57.00
C 86.98 57.57 85.96 58.27 85.00 59.00 Z"/>
</g>
<g fill="#36321F" fill-opacity="1.00" stroke="None">
<path d="
M 133.00 76.00 
C 135.36 69.73 137.44 63.15 140.00 57.00
C 135.99 59.55 131.97 71.84 133.00 76.00 Z"/>
</g>
<g fill="#C9AD6B" fill-opacity="1.00" stroke="None">
<path d="
M 63.00 77.00 
C 62.68 79.87 62.44 84.17 63.00 87.00
C 63.43 88.07 63.67 88.95 64.00 90.00
C 66.37 97.44 70.09 103.78 75.00 110.00
C 76.36 111.47 78.63 112.63 80.00 114.00
C 77.65 109.93 75.81 97.01 74.14 91.92 C 72.47 86.84 66.51 72.92 68.00 65.00
C 65.72 68.90 64.07 72.39 63.00 77.00 Z"/>
</g>
<g fill="#322D17" fill-opacity="1.00" stroke="None">
<path d="
M 77.00 88.00 
C 77.30 83.48 77.21 74.51 76.00 71.00
C 74.30 74.72 73.45 85.28 77.00 88.00 Z"/>
</g>
<g fill="#42321B" fill-opacity="1.00" stroke="None">
<path d="
M 63.00 87.00 
C 62.44 84.17 62.68 79.87 63.00 77.00
C 62.23 80.33 61.62 83.55 63.00 87.00 Z"/>
</g>
<g fill="#34301D" fill-opacity="1.00" stroke="None">
<path d="
M 125.00 96.00 
C 127.45 89.76 129.43 83.15 132.00 77.00
C 130.51 78.28 129.63 76.99 128.00 77.00
C 129.09 83.19 126.10 90.84 125.00 96.00 Z"/>
</g>
<g fill="#34301D" fill-opacity="1.00" stroke="None">
<path d="
M 137.00 90.00 
C 139.48 86.03 139.47 84.83 140.00 81.00
C 138.88 83.96 138.17 87.13 137.00 90.00 Z"/>
</g>
<g fill="#3C361D" fill-opacity="1.00" stroke="None">
<path d="
M 95.00 108.00 
C 90.91 101.38 82.49 94.25 77.00 89.00
C 78.74 96.92 89.32 102.98 95.00 108.00 Z"/>
</g>
<g fill="#392F1C" fill-opacity="1.00" stroke="None">
<path d="
M 96.00 109.00 
C 99.34 111.75 102.96 114.95 107.00 117.00
C 106.08 121.93 102.46 125.98 102.00 131.00
C 95.84 128.51 90.34 124.21 85.00 120.00
C 81.34 117.11 77.85 113.61 75.00 110.00
C 70.09 103.78 66.37 97.44 64.00 90.00
C 66.58 107.78 84.76 125.67 102.00 132.00
C 111.12 125.47 107.31 106.92 96.00 109.00 Z"/>
</g>
<g fill="#453821" fill-opacity="1.00" stroke="None">
<path d="
M 188.00 106.00 
C 188.34 101.53 185.45 99.29 184.00 96.00
C 184.87 98.80 185.71 104.24 188.00 106.00 Z"/>
</g>
<g fill="#322B1B" fill-opacity="1.00" stroke="None">
<path d="
M 134.00 98.00 
C 132.76 101.15 128.89 107.18 128.78 110.78 C 128.66 114.38 122.00 120.82 124.00 124.00
C 141.67 124.00 159.33 124.00 177.00 124.00
C 178.94 120.99 172.99 113.65 172.93 110.07 C 172.86 106.50 169.05 100.25 168.00 97.00
C 168.21 106.32 173.83 114.06 175.00 123.00
C 158.67 123.00 142.33 123.00 126.00 123.00
C 127.94 114.25 132.04 106.70 134.00 98.00 Z"/>
</g>
<g fill="#3B311F" fill-opacity="1.00" stroke="None">
<path d="
M 194.00 128.00 
C 193.36 122.16 192.96 112.78 188.00 107.00
C 188.24 113.45 191.81 121.98 194.00 128.00 Z"/>
</g>
<g fill="#8D805B" fill-opacity="1.00" stroke="None">
<path d="
M 85.00 120.00 
C 83.25 118.38 81.74 115.74 80.00 114.00
C 78.63 112.63 76.36 111.47 75.00 110.00
C 77.85 113.61 81.34 117.11 85.00 120.00 Z"/>
</g>
<g fill="#C8AE6E" fill-opacity="1.00" stroke="None">
<path d="
M 115.00 185.00 
C 115.48 182.76 113.48 182.43 112.00 182.00
C 111.65 181.90 111.19 181.32 111.00 181.00
C 105.75 179.84 105.24 176.41 106.00 171.00
C 106.30 168.86 107.31 166.06 108.00 164.00
C 110.24 157.27 113.29 150.53 116.00 144.00
C 116.59 142.58 117.26 140.18 118.00 139.00
C 118.72 133.06 114.91 123.09 116.00 117.00
C 103.51 139.48 101.69 175.63 74.00 184.00
C 80.03 185.12 87.59 185.89 94.00 185.00 C 100.41 184.11 108.89 187.02 115.00 185.00 Z"/>
</g>
<g fill="#645E37" fill-opacity="1.00" stroke="None">
<path d="
M 165.00 125.00 
C 167.60 125.00 175.56 126.24 177.00 124.00
C 159.33 124.00 141.67 124.00 124.00 124.00
C 126.41 127.82 139.04 124.12 144.00 125.00 C 148.96 125.88 159.53 125.00 165.00 125.00 Z"/>
</g>
<g fill="#382E1D" fill-opacity="1.00" stroke="None">
<path d="
M 118.00 139.00 
C 120.63 137.95 121.28 134.97 123.00 133.00
C 140.86 133.12 160.45 132.92 179.00 133.00
C 180.69 140.07 183.40 146.73 185.69 153.31 C 187.99 159.88 190.28 165.82 193.03 171.98 C 195.77 178.13 197.59 184.22 201.08 189.92 C 204.57 195.62 207.86 200.41 211.30 205.70 C 214.73 210.99 220.02 214.44 224.30 219.70 C 228.59 224.96 234.62 224.76 239.30 228.70 C 243.98 232.64 255.51 232.11 261.00 233.00 C 266.49 233.89 281.30 228.11 274.00 226.00
C 278.11 228.45 265.22 230.92 264.00 231.00
C 260.53 231.62 257.40 231.55 254.00 231.00
C 242.73 230.39 233.83 224.56 225.00 218.00
C 221.63 215.49 218.55 212.23 216.00 209.00
C 211.70 203.56 207.43 197.95 204.00 192.00
C 193.46 172.59 186.46 151.86 180.00 131.00
C 175.33 131.00 170.67 131.00 166.00 131.00
C 151.00 131.00 136.00 131.00 121.00 131.00
C 120.40 133.81 118.94 136.29 118.00 139.00 Z"/>
</g>
<g fill="#382D1D" fill-opacity="1.00" stroke="None">
<path d="
M 123.00 146.00 
C 123.88 133.41 136.61 138.31 139.75 147.25 C 142.90 156.18 146.72 164.06 147.00 174.00 C 147.28 183.94 144.72 192.99 139.00 201.00
C 137.06 203.72 134.55 205.99 132.00 208.00
C 125.42 213.19 118.04 217.04 110.00 219.00
C 103.57 220.57 95.89 221.65 89.00 221.00
C 80.99 220.25 72.82 217.22 66.00 213.00
C 62.09 210.58 56.85 206.72 54.00 203.00
C 58.09 210.74 66.07 216.15 73.33 218.67 C 80.59 221.20 93.91 224.80 101.77 222.77 C 109.63 220.74 119.76 218.58 126.25 214.25 C 132.73 209.91 139.41 204.20 144.01 197.01 C 148.61 189.81 149.11 177.08 148.00 168.00 C 146.89 158.92 143.30 151.09 138.25 142.75 C 133.21 134.40 120.99 135.79 123.00 146.00 Z"/>
</g>
<g fill="#BF9A5F" fill-opacity="1.00" stroke="None">
<path d="
M 123.00 146.00 
C 122.26 156.58 135.14 166.90 131.99 178.99 C 128.85 191.08 126.24 196.61 118.00 206.00
C 117.90 206.11 113.88 209.04 117.00 210.00
C 115.19 211.41 112.16 210.83 111.00 213.00
C 113.52 213.82 110.25 215.10 113.00 217.00
C 111.72 216.73 110.28 217.77 110.00 219.00
C 118.04 217.04 125.42 213.19 132.00 208.00
C 134.11 206.05 137.22 203.13 139.00 201.00
C 144.72 192.99 147.28 183.94 147.00 174.00 C 146.72 164.06 142.90 156.18 139.75 147.25 C 136.61 138.31 123.88 133.41 123.00 146.00 Z"/>
</g>
<g fill="#B99A64" fill-opacity="1.00" stroke="None">
<path d="
M 54.00 203.00 
C 56.85 206.72 62.09 210.58 66.00 213.00
C 63.60 210.18 63.80 207.19 68.00 207.00
C 67.33 206.48 66.72 205.55 66.00 205.00
C 63.37 202.99 60.90 200.65 59.00 198.00
C 57.94 196.02 56.99 193.87 56.00 192.00
C 52.41 185.20 50.83 177.39 52.00 169.00
C 52.34 166.59 53.32 163.38 54.00 161.00
C 55.61 155.40 59.14 149.78 62.00 145.00
C 61.16 143.22 52.76 150.23 51.92 153.92 C 51.09 157.61 47.25 163.96 47.00 169.00 C 46.75 174.04 46.78 183.89 48.02 188.98 C 49.27 194.06 51.63 198.51 54.00 203.00 Z"/>
</g>
<g fill="#382F1D" fill-opacity="1.00" stroke="None">
<path d="
M 108.00 164.00 
C 109.52 160.79 112.77 157.70 114.01 154.01 C 115.25 150.32 115.71 145.73 116.00 144.00
C 113.29 150.53 110.24 157.27 108.00 164.00 Z"/>
</g>
<g fill="#433320" fill-opacity="1.00" stroke="None">
<path d="
M 54.00 161.00 
C 55.34 157.96 63.98 149.21 62.00 145.00
C 59.14 149.78 55.61 155.40 54.00 161.00 Z"/>
</g>
<g fill="#413421" fill-opacity="1.00" stroke="None">
<path d="
M 209.00 168.00 
C 209.33 168.61 210.67 169.42 211.00 170.00
C 208.74 162.57 205.66 155.64 202.00 149.00
C 204.22 155.08 205.94 162.35 209.00 168.00 Z"/>
</g>
<g fill="#C2A266" fill-opacity="1.00" stroke="None">
<path d="
M 204.00 192.00 
C 207.43 197.95 211.70 203.56 216.00 209.00
C 218.61 211.83 222.16 215.53 225.00 218.00
C 233.83 224.56 242.73 230.39 254.00 231.00
C 257.25 231.18 260.75 231.22 264.00 231.00
C 265.22 230.92 278.11 228.45 274.00 226.00
C 266.67 223.88 255.27 226.25 249.08 220.92 C 242.90 215.59 238.40 212.75 233.25 206.75 C 228.11 200.75 225.18 195.33 220.77 189.23 C 216.36 183.13 214.64 176.26 211.00 170.00
C 210.67 169.42 209.33 168.61 209.00 168.00
C 207.69 169.48 208.02 173.08 211.00 174.00
C 209.57 176.45 208.50 179.00 209.00 182.00
C 215.59 183.28 210.53 192.73 212.00 198.00
C 209.42 197.02 205.84 194.36 204.00 192.00 Z"/>
</g>
<g fill="#352A1A" fill-opacity="1.00" stroke="None">
<path d="
M 56.00 192.00 
C 53.74 185.47 51.71 175.61 52.00 169.00
C 50.83 177.39 52.41 185.20 56.00 192.00 Z"/>
</g>
<g fill="#382A1A" fill-opacity="1.00" stroke="None">
<path d="
M 111.00 181.00 
C 110.37 179.54 108.77 177.79 107.00 178.00
C 108.11 175.87 105.94 172.36 106.00 171.00
C 105.24 176.41 105.75 179.84 111.00 181.00 Z"/>
</g>
<g fill="#332E1E" fill-opacity="1.00" stroke="None">
<path d="
M 112.00 182.00 
C 113.48 182.43 115.48 182.76 115.00 185.00
C 116.36 184.58 117.33 183.20 118.00 182.00
C 116.03 180.17 113.71 181.35 112.00 182.00 Z"/>
</g>
<g fill="#645738" fill-opacity="1.00" stroke="None">
<path d="
M 66.00 205.00 
C 63.96 202.97 61.62 200.32 60.00 198.00
C 60.00 198.00 59.11 198.21 59.00 198.00
C 60.90 200.65 63.37 202.99 66.00 205.00 Z"/>
</g>
<g fill="#362D1D" fill-opacity="1.00" stroke="None">
<path d="
M 66.00 205.00 
C 66.72 205.55 67.33 206.48 68.00 207.00
C 70.36 208.85 74.94 210.50 78.00 211.00
C 74.59 206.56 64.94 201.78 60.00 198.00
C 61.62 200.32 63.96 202.97 66.00 205.00 Z"/>
</g>
<g fill="#7F6949" fill-opacity="1.00" stroke="None">
<path d="
M 132.00 208.00 
C 134.55 205.99 137.06 203.72 139.00 201.00
C 137.22 203.13 134.11 206.05 132.00 208.00 Z"/>
</g>
<g fill="#CAB374" fill-opacity="1.00" stroke="None">
<path d="
M 97.00 213.00 
C 96.20 213.20 95.31 213.89 94.00 214.00
C 94.40 213.64 93.55 219.70 94.00 220.00
C 92.43 220.39 89.78 219.06 89.00 221.00
C 95.89 221.65 103.57 220.57 110.00 219.00
C 110.28 217.77 111.72 216.73 113.00 217.00
C 110.25 215.10 113.52 213.82 111.00 213.00
C 112.16 210.83 115.19 211.41 117.00 210.00
C 113.88 209.04 117.90 206.11 118.00 206.00
C 112.49 210.02 103.87 212.66 97.00 213.00 Z"/>
</g>
<g fill="#DBCF88" fill-opacity="1.00" stroke="None">
<path d="
M 66.00 213.00 
C 72.82 217.22 80.99 220.25 89.00 221.00
C 89.78 219.06 92.43 220.39 94.00 220.00
C 93.55 219.70 94.40 213.64 94.00 214.00
C 91.65 214.20 89.62 213.25 88.00 213.00
C 84.71 213.23 81.36 212.92 79.00 211.00
C 79.00 211.00 78.49 211.08 78.00 211.00
C 74.94 210.50 70.36 208.85 68.00 207.00
C 63.80 207.19 63.60 210.18 66.00 213.00 Z"/>
</g>
<g fill="#7D6C49" fill-opacity="1.00" stroke="None">
<path d="
M 225.00 218.00 
C 222.16 215.53 218.61 211.83 216.00 209.00
C 218.55 212.23 221.63 215.49 225.00 218.00 Z"/>
</g>
<g fill="#312A15" fill-opacity="1.00" stroke="None">
<path d="
M 88.00 213.00 
C 88.50 212.97 89.50 213.00 90.00 213.00
C 86.53 212.46 83.35 210.59 79.00 211.00
C 81.36 212.92 84.71 213.23 88.00 213.00 Z"/>
</g>
<g fill="#6F6149" fill-opacity="1.00" stroke="None">
<path d="
M 94.00 214.00 
C 95.31 213.89 96.20 213.20 97.00 213.00
C 94.68 213.12 92.32 213.00 90.00 213.00
C 89.50 213.00 88.50 212.97 88.00 213.00
C 89.62 213.25 91.65 214.20 94.00 214.00 Z"/>
</g>
<g fill="#7A613B" fill-opacity="1.00" stroke="None">
<path d="
M 264.00 231.00 
C 260.75 231.22 257.25 231.18 254.00 231.00
C 257.40 231.55 260.53 231.62 264.00 231.00 Z"/>
</g>
</svg>